<svg xmlns="http://www.w3.org/2000/svg"  width="600" height="190" viewBox="300 400 1650 620">
<g transform="matrix(0.7,0,0,0.7,149.57575757575756,448.50939748916056)"><svg viewBox="0 0 396 59" data-background-color="#ffffff" preserveAspectRatio="xMidYMid meet" height="200" width="1000" xmlns="http://www.w3.org/2000/svg" xmlns:xlink="http://www.w3.org/1999/xlink"><g id="tight-bounds" transform="matrix(1,0,0,1,0.2400000000000091,-0.17619941123098215)"><svg viewBox="0 0 395.52 59.35239975323874" height="59.35239975323874" width="395.52"><g>
<svg viewBox="0 0 395.52000000000004 59.35239975323875" height="59.35239975323874" width="395.52"><g>
<svg viewBox="0 0 395.52000000000004 59.35239975323875" height="59.35239975323875" width="395.52000000000004"><g id="textblocktransform"><svg viewBox="0 0 395.52000000000004 59.35239975323875" height="59.35239975323875" width="395.52000000000004" id="textblock"><g><svg viewBox="0 0 395.52000000000004 59.35239975323875" height="59.35239975323875" width="395.52000000000004"><g transform="matrix(1,0,0,1,0,0)"><svg width="395.52000000000004" viewBox="2.5 -37.599998474121094 324.1700134277344 48.64999771118164" height="59.35239975323875" data-palette-color="#8abe53"><path d="M5.65 0L5.65 0Q4.3 0 3.4-0.65 2.5-1.3 2.5-2.05L2.5-2.05 2.5-21.75Q2.5-22.65 3.4-23.2 4.3-23.75 5.65-23.75L5.65-23.75Q6.9-23.75 7.73-23.2 8.55-22.65 8.55-21.75L8.55-21.75 8.55-19.7Q9.1-20.8 10.03-21.78 10.95-22.75 12.15-23.4 13.35-24.05 14.7-24.05L14.7-24.05 16.25-24.05Q17.2-24.05 17.9-23.23 18.6-22.4 18.6-21.25L18.6-21.25Q18.6-20.05 17.9-19.23 17.2-18.4 16.25-18.4L16.25-18.4 14.7-18.4Q13.3-18.4 11.98-17.48 10.65-16.55 9.8-14.93 8.95-13.3 8.95-11L8.95-11 8.95-2.05Q8.95-1.3 8-0.65 7.05 0 5.65 0ZM31.9 0.45L31.9 0.45Q28.35 0.45 25.62-0.83 22.9-2.1 21.35-4.42 19.8-6.75 19.8-9.8L19.8-9.8 19.8-14.05Q19.8-16.75 21.27-19.03 22.75-21.3 25.22-22.68 27.7-24.05 30.75-24.05L30.75-24.05Q33.55-24.05 35.87-22.85 38.2-21.65 39.65-19.55 41.1-17.45 41.1-14.65L41.1-14.65Q41.1-12.5 40.4-11.58 39.7-10.65 38.62-10.43 37.55-10.2 36.4-10.2L36.4-10.2 26.25-10.2 26.25-9.45Q26.25-7.3 27.87-5.98 29.5-4.65 32.1-4.65L32.1-4.65Q33.75-4.65 34.85-5.15 35.95-5.65 36.75-6.1 37.55-6.55 38.25-6.55L38.25-6.55Q39-6.55 39.55-6.05 40.1-5.55 40.4-4.88 40.7-4.2 40.7-3.7L40.7-3.7Q40.7-2.85 39.62-1.88 38.55-0.9 36.57-0.23 34.6 0.45 31.9 0.45ZM26.25-15.4L26.25-14 33.55-14Q34.4-14 34.72-14.28 35.05-14.55 35.05-15.35L35.05-15.35Q35.05-16.5 34.45-17.4 33.85-18.3 32.85-18.8 31.85-19.3 30.65-19.3L30.65-19.3Q29.5-19.3 28.5-18.82 27.5-18.35 26.87-17.48 26.25-16.6 26.25-15.4L26.25-15.4ZM55 0.45L55 0.45Q51.2 0.45 48.8-0.9 46.4-2.25 45.24-4.58 44.09-6.9 44.09-9.8L44.09-9.8 44.09-13.8Q44.09-16.7 45.22-19.03 46.34-21.35 48.77-22.7 51.2-24.05 54.9-24.05L54.9-24.05Q57.25-24.05 59.05-23.5 60.84-22.95 61.9-22.05 62.95-21.15 62.95-20.15L62.95-20.15Q62.95-19.6 62.62-18.85 62.3-18.1 61.72-17.55 61.14-17 60.39-17L60.39-17Q59.84-17 59.27-17.35 58.7-17.7 57.8-18.05 56.9-18.4 55.4-18.4L55.4-18.4Q52.84-18.4 51.7-17.18 50.55-15.95 50.55-13.8L50.55-13.8 50.55-9.8Q50.55-7.65 51.7-6.43 52.84-5.2 55.45-5.2L55.45-5.2Q57-5.2 57.84-5.6 58.7-6 59.27-6.35 59.84-6.7 60.45-6.7L60.45-6.7Q61.34-6.7 61.97-6.2 62.59-5.7 62.92-4.98 63.25-4.25 63.25-3.65L63.25-3.65Q63.25-2.65 62.17-1.7 61.09-0.75 59.22-0.15 57.34 0.45 55 0.45ZM67.29 11.05L67.29 11.05Q66.04 11.05 65.19 10.58 64.34 10.1 64.34 8.3L64.34 8.3Q64.34 7.2 64.72 6.4 65.09 5.6 65.99 5.6L65.99 5.6Q66.84 5.6 67.97 5.3 69.09 5 70.24 4.17 71.39 3.35 72.19 1.93 72.99 0.5 73.14-1.75L73.14-1.75 64.54-20.15Q64.34-20.6 64.34-21L64.34-21Q64.34-21.85 65.07-22.55 65.79-23.25 66.79-23.68 67.79-24.1 68.64-24.1L68.64-24.1Q69.24-24.1 69.77-23.85 70.29-23.6 70.49-23L70.49-23 76.49-8.05 81.29-23Q81.54-23.6 82.04-23.85 82.54-24.1 83.04-24.1L83.04-24.1Q83.79-24.1 84.84-23.68 85.89-23.25 86.67-22.53 87.44-21.8 87.44-20.9L87.44-20.9Q87.44-20.45 87.29-20.15L87.29-20.15 79.99-1.5Q79.09 0.75 78.24 2.98 77.39 5.2 76.12 7.03 74.84 8.85 72.74 9.95 70.64 11.05 67.29 11.05ZM100.34 0.45L100.34 0.45Q96.54 0.45 94.14-0.9 91.74-2.25 90.59-4.58 89.44-6.9 89.44-9.8L89.44-9.8 89.44-13.8Q89.44-16.7 90.57-19.03 91.69-21.35 94.12-22.7 96.54-24.05 100.24-24.05L100.24-24.05Q102.59-24.05 104.39-23.5 106.19-22.95 107.24-22.05 108.29-21.15 108.29-20.15L108.29-20.15Q108.29-19.6 107.97-18.85 107.64-18.1 107.07-17.55 106.49-17 105.74-17L105.74-17Q105.19-17 104.62-17.35 104.04-17.7 103.14-18.05 102.24-18.4 100.74-18.4L100.74-18.4Q98.19-18.4 97.04-17.18 95.89-15.95 95.89-13.8L95.89-13.8 95.89-9.8Q95.89-7.65 97.04-6.43 98.19-5.2 100.79-5.2L100.79-5.2Q102.34-5.2 103.19-5.6 104.04-6 104.62-6.35 105.19-6.7 105.79-6.7L105.79-6.7Q106.69-6.7 107.32-6.2 107.94-5.7 108.27-4.98 108.59-4.25 108.59-3.65L108.59-3.65Q108.59-2.65 107.52-1.7 106.44-0.75 104.57-0.15 102.69 0.45 100.34 0.45ZM115.59 0L115.59 0Q114.19 0 113.29-0.65 112.39-1.3 112.39-2.05L112.39-2.05 112.39-35.6Q112.39-36.5 113.29-37.05 114.19-37.6 115.59-37.6L115.59-37.6Q116.94-37.6 117.89-37.05 118.84-36.5 118.84-35.6L118.84-35.6 118.84-2.05Q118.84-1.3 117.89-0.65 116.94 0 115.59 0ZM129.39 0.45L129.39 0.45Q126.74 0.45 124.81-1.18 122.89-2.8 122.89-6.2L122.89-6.2Q122.89-9.05 124.36-10.65 125.84-12.25 128.46-12.9 131.09-13.55 134.54-13.55L134.54-13.55 136.59-13.55 136.59-14.2Q136.59-15.3 136.16-16.35 135.74-17.4 134.81-18.1 133.89-18.8 132.19-18.8L132.19-18.8Q130.29-18.8 129.26-18.43 128.24-18.05 127.69-17.65 127.14-17.25 126.49-17.25L126.49-17.25Q125.44-17.25 124.86-18.3 124.29-19.35 124.29-20.45L124.29-20.45Q124.29-21.5 125.56-22.33 126.84-23.15 128.69-23.6 130.54-24.05 132.29-24.05L132.29-24.05Q136.19-24.05 138.54-22.65 140.89-21.25 141.96-19.05 143.04-16.85 143.04-14.3L143.04-14.3 143.04-2.05Q143.04-1.2 142.14-0.6 141.24 0 139.89 0L139.89 0Q138.64 0 137.81-0.6 136.99-1.2 136.99-2.05L136.99-2.05 136.99-3.5Q135.64-1.95 133.81-0.75 131.99 0.45 129.39 0.45ZM131.99-4.35L131.99-4.35Q133.04-4.35 134.09-5.05 135.14-5.75 135.86-6.85 136.59-7.95 136.59-9.15L136.59-9.15 136.59-10.2 135.84-10.2Q134.19-10.2 132.69-10 131.19-9.8 130.26-9.13 129.34-8.45 129.34-7.05L129.34-7.05Q129.34-5.65 130.11-5 130.89-4.35 131.99-4.35ZM160.88 0.45L160.88 0.45Q158.53 0.45 156.63-0.75 154.73-1.95 153.93-3.5L153.93-3.5 153.93-2.05Q153.93-1.3 153.11-0.65 152.28 0 151.03 0L151.03 0Q149.68 0 148.78-0.65 147.88-1.3 147.88-2.05L147.88-2.05 147.88-35.6Q147.88-36.5 148.78-37.05 149.68-37.6 151.03-37.6L151.03-37.6Q152.43-37.6 153.38-37.05 154.33-36.5 154.33-35.6L154.33-35.6 154.33-20.25Q155.13-21.7 156.78-22.88 158.43-24.05 160.73-24.05L160.73-24.05Q163.18-24.05 165.21-22.68 167.23-21.3 168.43-19 169.63-16.7 169.63-13.9L169.63-13.9 169.63-9.8Q169.63-7.15 168.43-4.8 167.23-2.45 165.23-1 163.23 0.45 160.88 0.45ZM158.83-5.2L158.83-5.2Q160.03-5.2 161.03-5.88 162.03-6.55 162.61-7.6 163.18-8.65 163.18-9.8L163.18-9.8 163.18-13.9Q163.18-15.05 162.61-16.05 162.03-17.05 161.03-17.73 160.03-18.4 158.78-18.4L158.78-18.4Q157.73-18.4 156.71-17.85 155.68-17.3 155.01-16.3 154.33-15.3 154.33-13.9L154.33-13.9 154.33-8.9Q154.33-8.4 154.93-7.53 155.53-6.65 156.56-5.93 157.58-5.2 158.83-5.2ZM177.43 0L177.43 0Q176.03 0 175.13-0.65 174.23-1.3 174.23-2.05L174.23-2.05 174.23-35.6Q174.23-36.5 175.13-37.05 176.03-37.6 177.43-37.6L177.43-37.6Q178.78-37.6 179.73-37.05 180.68-36.5 180.68-35.6L180.68-35.6 180.68-2.05Q180.68-1.3 179.73-0.65 178.78 0 177.43 0ZM197.33 0.45L197.33 0.45Q193.78 0.45 191.05-0.83 188.33-2.1 186.78-4.42 185.23-6.75 185.23-9.8L185.23-9.8 185.23-14.05Q185.23-16.75 186.7-19.03 188.18-21.3 190.65-22.68 193.13-24.05 196.18-24.05L196.18-24.05Q198.98-24.05 201.3-22.85 203.63-21.65 205.08-19.55 206.53-17.45 206.53-14.65L206.53-14.65Q206.53-12.5 205.83-11.58 205.13-10.65 204.05-10.43 202.98-10.2 201.83-10.2L201.83-10.2 191.68-10.2 191.68-9.45Q191.68-7.3 193.3-5.98 194.93-4.65 197.53-4.65L197.53-4.65Q199.18-4.65 200.28-5.15 201.38-5.65 202.18-6.1 202.98-6.55 203.68-6.55L203.68-6.55Q204.43-6.55 204.98-6.05 205.53-5.55 205.83-4.88 206.13-4.2 206.13-3.7L206.13-3.7Q206.13-2.85 205.05-1.88 203.98-0.9 202-0.23 200.03 0.45 197.33 0.45ZM191.68-15.4L191.68-14 198.98-14Q199.83-14 200.15-14.28 200.48-14.55 200.48-15.35L200.48-15.35Q200.48-16.5 199.88-17.4 199.28-18.3 198.28-18.8 197.28-19.3 196.08-19.3L196.08-19.3Q194.93-19.3 193.93-18.82 192.93-18.35 192.3-17.48 191.68-16.6 191.68-15.4L191.68-15.4ZM218.63 0.55L218.63 0.55Q217.78 0.55 217.08 0.3 216.38 0.05 216.13-0.65L216.13-0.65 208.38-20.4Q208.28-20.75 208.23-20.98 208.18-21.2 208.18-21.35L208.18-21.35Q208.18-22.15 208.85-22.73 209.53-23.3 210.53-23.65 211.53-24 212.33-24L212.33-24Q212.98-24 213.5-23.75 214.03-23.5 214.23-22.95L214.23-22.95 219.23-8.75 222.98-21.1Q223.23-21.95 223.83-22.18 224.43-22.4 225.18-22.4L225.18-22.4Q225.93-22.4 226.53-22.18 227.13-21.95 227.38-21.1L227.38-21.1 231.08-8.7 236.13-22.95Q236.48-24 237.93-24L237.93-24Q238.73-24 239.73-23.65 240.73-23.3 241.43-22.7 242.13-22.1 242.13-21.3L242.13-21.3Q242.13-21.1 242.08-20.85 242.03-20.6 241.93-20.4L241.93-20.4 234.18-0.6Q233.93 0.05 233.23 0.3 232.53 0.55 231.68 0.55L231.68 0.55Q230.78 0.55 230.03 0.25 229.28-0.05 229.03-0.6L229.03-0.6 225.18-11.5 221.33-0.65Q221.18-0.05 220.38 0.25 219.58 0.55 218.63 0.55ZM250.07 0.45L250.07 0.45Q247.42 0.45 245.5-1.18 243.57-2.8 243.57-6.2L243.57-6.2Q243.57-9.05 245.05-10.65 246.52-12.25 249.15-12.9 251.77-13.55 255.22-13.55L255.22-13.55 257.27-13.55 257.27-14.2Q257.27-15.3 256.85-16.35 256.42-17.4 255.5-18.1 254.57-18.8 252.87-18.8L252.87-18.8Q250.97-18.8 249.95-18.43 248.92-18.05 248.37-17.65 247.82-17.25 247.17-17.25L247.17-17.25Q246.12-17.25 245.55-18.3 244.97-19.35 244.97-20.45L244.97-20.45Q244.97-21.5 246.25-22.33 247.52-23.15 249.37-23.6 251.22-24.05 252.97-24.05L252.97-24.05Q256.87-24.05 259.22-22.65 261.57-21.25 262.65-19.05 263.72-16.85 263.72-14.3L263.72-14.3 263.72-2.05Q263.72-1.2 262.82-0.6 261.92 0 260.57 0L260.57 0Q259.32 0 258.5-0.6 257.67-1.2 257.67-2.05L257.67-2.05 257.67-3.5Q256.32-1.95 254.5-0.75 252.67 0.45 250.07 0.45ZM252.67-4.35L252.67-4.35Q253.72-4.35 254.77-5.05 255.82-5.75 256.55-6.85 257.27-7.95 257.27-9.15L257.27-9.15 257.27-10.2 256.52-10.2Q254.87-10.2 253.37-10 251.87-9.8 250.95-9.13 250.02-8.45 250.02-7.05L250.02-7.05Q250.02-5.65 250.8-5 251.57-4.35 252.67-4.35ZM276.27 0.45L276.27 0.45Q273.77 0.45 271.7-0.18 269.62-0.8 268.45-1.8 267.27-2.8 267.27-3.85L267.27-3.85Q267.27-4.35 267.55-5.03 267.82-5.7 268.3-6.2 268.77-6.7 269.42-6.7L269.42-6.7Q270.12-6.7 270.9-6.13 271.67-5.55 272.85-5 274.02-4.45 276.12-4.45L276.12-4.45Q278.37-4.45 279.1-5.15 279.82-5.85 279.82-6.6L279.82-6.6Q279.82-7.7 278.95-8.3 278.07-8.9 276.72-9.3 275.37-9.7 273.85-10.13 272.32-10.55 270.97-11.28 269.62-12 268.77-13.28 267.92-14.55 267.92-16.6L267.92-16.6Q267.92-18.4 268.77-20.1 269.62-21.8 271.57-22.93 273.52-24.05 276.87-24.05L276.87-24.05Q278.92-24.05 280.75-23.63 282.57-23.2 283.72-22.45 284.87-21.7 284.87-20.8L284.87-20.8Q284.87-20.35 284.57-19.63 284.27-18.9 283.75-18.3 283.22-17.7 282.47-17.7L282.47-17.7Q281.92-17.7 281.15-18.07 280.37-18.45 279.37-18.8 278.37-19.15 276.97-19.15L276.97-19.15Q275.72-19.15 274.97-18.8 274.22-18.45 273.87-17.95 273.52-17.45 273.52-16.9L273.52-16.9Q273.52-16 274.37-15.5 275.22-15 276.6-14.65 277.97-14.3 279.5-13.88 281.02-13.45 282.4-12.63 283.77-11.8 284.62-10.45 285.47-9.1 285.47-6.85L285.47-6.85Q285.47-3.55 283.1-1.55 280.72 0.45 276.27 0.45ZM300.47 0L298.52 0Q294.02 0 291.64-1.95 289.27-3.9 289.27-8.1L289.27-8.1 289.27-32.35Q289.27-33.25 290.32-33.8 291.37-34.35 292.47-34.35L292.47-34.35Q293.67-34.35 294.69-33.8 295.72-33.25 295.72-32.35L295.72-32.35 295.72-23.75 301.62-23.75Q302.42-23.75 302.84-23.03 303.27-22.3 303.27-21.4L303.27-21.4Q303.27-20.5 302.84-19.78 302.42-19.05 301.62-19.05L301.62-19.05 295.72-19.05 295.72-8.1Q295.72-6.65 296.34-6.05 296.97-5.45 298.52-5.45L298.52-5.45 300.47-5.45Q301.87-5.45 302.54-4.6 303.22-3.75 303.22-2.75L303.22-2.75Q303.22-1.7 302.54-0.85 301.87 0 300.47 0L300.47 0ZM317.47 0.45L317.47 0.45Q313.92 0.45 311.19-0.83 308.47-2.1 306.92-4.42 305.37-6.75 305.37-9.8L305.37-9.8 305.37-14.05Q305.37-16.75 306.84-19.03 308.32-21.3 310.79-22.68 313.27-24.05 316.32-24.05L316.32-24.05Q319.12-24.05 321.44-22.85 323.77-21.65 325.22-19.55 326.67-17.45 326.67-14.65L326.67-14.65Q326.67-12.5 325.97-11.58 325.27-10.65 324.19-10.43 323.12-10.2 321.97-10.2L321.97-10.2 311.82-10.2 311.82-9.45Q311.82-7.3 313.44-5.98 315.07-4.65 317.67-4.65L317.67-4.65Q319.32-4.65 320.42-5.15 321.52-5.65 322.32-6.1 323.12-6.55 323.82-6.55L323.82-6.55Q324.57-6.55 325.12-6.05 325.67-5.55 325.97-4.88 326.27-4.2 326.27-3.7L326.27-3.7Q326.27-2.85 325.19-1.88 324.12-0.9 322.14-0.23 320.17 0.45 317.47 0.45ZM311.82-15.4L311.82-14 319.12-14Q319.97-14 320.29-14.28 320.62-14.55 320.62-15.35L320.62-15.35Q320.62-16.5 320.02-17.4 319.42-18.3 318.42-18.8 317.42-19.3 316.22-19.3L316.22-19.3Q315.07-19.3 314.07-18.82 313.07-18.35 312.44-17.48 311.82-16.6 311.82-15.4L311.82-15.4Z" opacity="1" transform="matrix(1,0,0,1,0,0)" fill="#007a33" class="wordmark-text-0" data-fill-palette-color="primary" id="text-0"></path></svg></g></svg></g></svg></g></svg></g></svg></g><defs></defs></svg><rect width="395.52" height="59.35239975323874" fill="#007a33" stroke="none" visibility="hidden"></rect></g></svg></g></svg>